<mxfile host="app.diagrams.net" modified="2022-08-24T07:50:57.666Z" agent="5.0 (X11; Linux x86_64) AppleWebKit/537.36 (KHTML, like Gecko) Chrome/98.0.4758.80 Safari/537.36" etag="jUXZVbySdSXv3bykImhv" version="20.2.6" type="github">
  <diagram id="HpmNJZ4S2sPcuRV42RLy" name="Page-1">
    <mxGraphModel dx="1237" dy="1844" grid="1" gridSize="10" guides="1" tooltips="1" connect="1" arrows="1" fold="1" page="1" pageScale="1" pageWidth="827" pageHeight="1169" math="0" shadow="0">
      <root>
        <mxCell id="0" />
        <mxCell id="1" parent="0" />
        <mxCell id="Vm2ZW-4iMKkyB53sfb6V-6" value="&lt;font style=&quot;font-size: 20px;&quot;&gt;GENERAL&lt;/font&gt;" style="rounded=1;whiteSpace=wrap;html=1;sketch=0;" parent="1" vertex="1">
          <mxGeometry x="370" y="120" width="250" height="70" as="geometry" />
        </mxCell>
        <mxCell id="Vm2ZW-4iMKkyB53sfb6V-8" value="&lt;h1&gt;Титульная&lt;/h1&gt;" style="text;html=1;strokeColor=none;fillColor=none;spacing=5;spacingTop=-20;whiteSpace=wrap;overflow=hidden;rounded=0;sketch=0;" parent="1" vertex="1">
          <mxGeometry x="90" y="135" width="140" height="40" as="geometry" />
        </mxCell>
        <mxCell id="Vm2ZW-4iMKkyB53sfb6V-9" value="&lt;font style=&quot;font-size: 20px;&quot;&gt;GENERAL&lt;/font&gt;" style="rounded=1;whiteSpace=wrap;html=1;sketch=0;" parent="1" vertex="1">
          <mxGeometry x="370" y="200" width="250" height="70" as="geometry" />
        </mxCell>
        <mxCell id="Vm2ZW-4iMKkyB53sfb6V-10" value="ФССП" style="rounded=1;whiteSpace=wrap;html=1;sketch=0;fontSize=20;" parent="1" vertex="1">
          <mxGeometry x="300" y="200" width="70" height="70" as="geometry" />
        </mxCell>
        <mxCell id="Vm2ZW-4iMKkyB53sfb6V-11" value="&lt;h1&gt;Основная&lt;/h1&gt;" style="text;html=1;strokeColor=none;fillColor=none;spacing=5;spacingTop=-20;whiteSpace=wrap;overflow=hidden;rounded=0;sketch=0;" parent="1" vertex="1">
          <mxGeometry x="100" y="215" width="140" height="40" as="geometry" />
        </mxCell>
        <mxCell id="Vm2ZW-4iMKkyB53sfb6V-12" value="Empty" style="rounded=1;whiteSpace=wrap;html=1;sketch=0;fontSize=20;" parent="1" vertex="1">
          <mxGeometry x="230" y="120" width="70" height="70" as="geometry" />
        </mxCell>
        <mxCell id="Vm2ZW-4iMKkyB53sfb6V-13" value="Empty" style="rounded=1;whiteSpace=wrap;html=1;sketch=0;fontSize=20;" parent="1" vertex="1">
          <mxGeometry x="230" y="200" width="70" height="70" as="geometry" />
        </mxCell>
        <mxCell id="Vm2ZW-4iMKkyB53sfb6V-14" value="&lt;font style=&quot;font-size: 20px;&quot;&gt;GENERAL&lt;/font&gt;" style="rounded=1;whiteSpace=wrap;html=1;sketch=0;" parent="1" vertex="1">
          <mxGeometry x="370" y="280" width="250" height="70" as="geometry" />
        </mxCell>
        <mxCell id="Vm2ZW-4iMKkyB53sfb6V-16" value="&lt;h1&gt;Информационная&lt;/h1&gt;" style="text;html=1;strokeColor=none;fillColor=none;spacing=5;spacingTop=-20;whiteSpace=wrap;overflow=hidden;rounded=0;sketch=0;" parent="1" vertex="1">
          <mxGeometry y="295" width="230" height="40" as="geometry" />
        </mxCell>
        <mxCell id="Vm2ZW-4iMKkyB53sfb6V-17" value="Empty" style="rounded=1;whiteSpace=wrap;html=1;sketch=0;fontSize=20;" parent="1" vertex="1">
          <mxGeometry x="230" y="280" width="70" height="70" as="geometry" />
        </mxCell>
        <mxCell id="Vm2ZW-4iMKkyB53sfb6V-21" value="Empty" style="rounded=1;whiteSpace=wrap;html=1;sketch=0;fontSize=20;" parent="1" vertex="1">
          <mxGeometry x="230" y="360" width="70" height="70" as="geometry" />
        </mxCell>
        <mxCell id="Vm2ZW-4iMKkyB53sfb6V-22" value="&lt;h1&gt;Закрытая&lt;/h1&gt;" style="text;html=1;strokeColor=none;fillColor=none;spacing=5;spacingTop=-20;whiteSpace=wrap;overflow=hidden;rounded=0;sketch=0;" parent="1" vertex="1">
          <mxGeometry x="100" y="370" width="140" height="40" as="geometry" />
        </mxCell>
        <mxCell id="Vm2ZW-4iMKkyB53sfb6V-23" value="&lt;span style=&quot;font-size: 10px;&quot;&gt;Без разрешения&lt;/span&gt;" style="rounded=1;whiteSpace=wrap;html=1;sketch=0;fontSize=20;" parent="1" vertex="1">
          <mxGeometry x="300" y="280" width="70" height="70" as="geometry" />
        </mxCell>
        <mxCell id="Vm2ZW-4iMKkyB53sfb6V-24" value="&lt;font style=&quot;font-size: 20px;&quot;&gt;GENERAL&lt;/font&gt;" style="rounded=1;whiteSpace=wrap;html=1;sketch=0;" parent="1" vertex="1">
          <mxGeometry x="370" y="360" width="250" height="70" as="geometry" />
        </mxCell>
        <mxCell id="Vm2ZW-4iMKkyB53sfb6V-25" value="АУ" style="rounded=1;whiteSpace=wrap;html=1;sketch=0;fontSize=20;" parent="1" vertex="1">
          <mxGeometry x="300" y="360" width="70" height="70" as="geometry" />
        </mxCell>
        <mxCell id="Vm2ZW-4iMKkyB53sfb6V-31" value="Группа получателей" style="swimlane;sketch=0;fontSize=10;fillColor=#f8cecc;strokeColor=#b85450;align=left;" parent="1" vertex="1">
          <mxGeometry x="550" y="-110" width="150" height="180" as="geometry">
            <mxRectangle x="480" y="-110" width="140" height="30" as="alternateBounds" />
          </mxGeometry>
        </mxCell>
        <mxCell id="Vm2ZW-4iMKkyB53sfb6V-32" value="" style="shape=actor;whiteSpace=wrap;html=1;sketch=0;fontSize=10;" parent="Vm2ZW-4iMKkyB53sfb6V-31" vertex="1">
          <mxGeometry x="110" width="40" height="60" as="geometry" />
        </mxCell>
        <mxCell id="Vm2ZW-4iMKkyB53sfb6V-33" value="Пользователь:&lt;br&gt;&lt;span style=&quot;white-space: pre;&quot;&gt;	&lt;/span&gt;&lt;span style=&quot;white-space: pre;&quot;&gt;	&lt;/span&gt;1. Полный КО&lt;br&gt;Субъект:&lt;br&gt;&lt;span style=&quot;white-space: pre;&quot;&gt;	&lt;/span&gt;&lt;span style=&quot;white-space: pre;&quot;&gt;	&lt;/span&gt;1. Лично субъект&lt;br&gt;&lt;span style=&quot;white-space: pre;&quot;&gt;	&lt;/span&gt;&lt;span style=&quot;white-space: pre;&quot;&gt;	&lt;/span&gt;2. Опекун&lt;br&gt;&lt;span style=&quot;white-space: pre;&quot;&gt;	&lt;/span&gt;&lt;span style=&quot;white-space: pre;&quot;&gt;	&lt;/span&gt;3. Попечитель&lt;br&gt;КУП:&lt;br&gt;&lt;span style=&quot;white-space: pre;&quot;&gt;	&lt;/span&gt;&lt;span style=&quot;white-space: pre;&quot;&gt;	&lt;/span&gt;1. СУД&lt;br&gt;&lt;span style=&quot;white-space: pre;&quot;&gt;	&lt;/span&gt;&lt;span style=&quot;white-space: pre;&quot;&gt;	&lt;/span&gt;2. СК&lt;br&gt;ЦБ" style="text;html=1;align=left;verticalAlign=middle;resizable=0;points=[];autosize=1;strokeColor=#b85450;fillColor=#f8cecc;fontSize=10;" parent="Vm2ZW-4iMKkyB53sfb6V-31" vertex="1">
          <mxGeometry y="50" width="150" height="130" as="geometry" />
        </mxCell>
        <mxCell id="Vm2ZW-4iMKkyB53sfb6V-36" value="" style="endArrow=classic;html=1;rounded=1;fontSize=10;exitX=0.529;exitY=1;exitDx=0;exitDy=0;exitPerimeter=0;fillColor=#f8cecc;strokeColor=#b85450;flowAnimation=1;strokeWidth=2;entryX=0.678;entryY=1.002;entryDx=0;entryDy=0;entryPerimeter=0;" parent="1" source="Vm2ZW-4iMKkyB53sfb6V-33" edge="1" target="Vm2ZW-4iMKkyB53sfb6V-24">
          <mxGeometry width="50" height="50" relative="1" as="geometry">
            <mxPoint x="490" y="70" as="sourcePoint" />
            <mxPoint x="540" y="390" as="targetPoint" />
            <Array as="points">
              <mxPoint x="540" y="150" />
              <mxPoint x="540" y="230" />
              <mxPoint x="540" y="310" />
            </Array>
          </mxGeometry>
        </mxCell>
        <mxCell id="Vm2ZW-4iMKkyB53sfb6V-37" value="" style="shape=curlyBracket;whiteSpace=wrap;html=1;rounded=1;flipH=1;sketch=0;fontSize=10;" parent="1" vertex="1">
          <mxGeometry x="630" y="120" width="50" height="310" as="geometry" />
        </mxCell>
        <mxCell id="Vm2ZW-4iMKkyB53sfb6V-38" value="&lt;font style=&quot;font-size: 13px;&quot;&gt;Варианты &lt;br&gt;построения &lt;br&gt;частей КО&lt;/font&gt;" style="text;html=1;align=center;verticalAlign=middle;resizable=0;points=[];autosize=1;strokeColor=default;fillColor=none;fontSize=10;" parent="1" vertex="1">
          <mxGeometry x="680" y="245" width="90" height="60" as="geometry" />
        </mxCell>
        <mxCell id="Vm2ZW-4iMKkyB53sfb6V-40" value="ЦККИ" style="rounded=1;whiteSpace=wrap;html=1;sketch=0;fontSize=20;" parent="1" vertex="1">
          <mxGeometry x="300" y="120" width="70" height="70" as="geometry" />
        </mxCell>
        <mxCell id="Vm2ZW-4iMKkyB53sfb6V-47" value="" style="endArrow=classic;html=1;rounded=1;fontSize=9;exitX=0.512;exitY=1.025;exitDx=0;exitDy=0;exitPerimeter=0;fillColor=#fff2cc;strokeColor=#d6b656;comic=0;snapToPoint=1;endSize=6;targetPerimeterSpacing=0;sourcePerimeterSpacing=0;strokeWidth=2;startArrow=none;startFill=0;flowAnimation=1;entryX=0.857;entryY=0;entryDx=0;entryDy=0;entryPerimeter=0;" parent="1" source="Vm2ZW-4iMKkyB53sfb6V-42" target="Vm2ZW-4iMKkyB53sfb6V-68" edge="1">
          <mxGeometry width="50" height="50" relative="1" as="geometry">
            <mxPoint x="520" y="130" as="sourcePoint" />
            <mxPoint x="290" y="470" as="targetPoint" />
            <Array as="points">
              <mxPoint x="390" y="160" />
              <mxPoint x="250" y="230" />
              <mxPoint x="330" y="320" />
              <mxPoint x="280" y="390" />
            </Array>
          </mxGeometry>
        </mxCell>
        <mxCell id="Vm2ZW-4iMKkyB53sfb6V-48" value="" style="group" parent="1" vertex="1" connectable="0">
          <mxGeometry x="280" y="-20" width="50" height="90" as="geometry" />
        </mxCell>
        <mxCell id="Vm2ZW-4iMKkyB53sfb6V-45" value="" style="shape=actor;whiteSpace=wrap;html=1;sketch=0;fontSize=13;strokeColor=default;" parent="Vm2ZW-4iMKkyB53sfb6V-48" vertex="1">
          <mxGeometry x="5" width="40" height="60" as="geometry" />
        </mxCell>
        <mxCell id="Vm2ZW-4iMKkyB53sfb6V-46" value="&lt;font size=&quot;1&quot;&gt;ЦККИ&lt;br&gt;&lt;/font&gt;" style="text;html=1;align=center;verticalAlign=middle;resizable=0;points=[];autosize=1;strokeColor=#9673a6;fillColor=#e1d5e7;fontSize=13;" parent="Vm2ZW-4iMKkyB53sfb6V-48" vertex="1">
          <mxGeometry y="60" width="50" height="30" as="geometry" />
        </mxCell>
        <mxCell id="Vm2ZW-4iMKkyB53sfb6V-50" value="" style="group" parent="1" vertex="1" connectable="0">
          <mxGeometry x="470" y="-50" width="70" height="120" as="geometry" />
        </mxCell>
        <mxCell id="Vm2ZW-4iMKkyB53sfb6V-42" value="&lt;font style=&quot;font-size: 9px;&quot;&gt;Клиент &lt;br&gt;без &lt;br&gt;соглашения&lt;/font&gt;" style="text;html=1;align=center;verticalAlign=middle;resizable=0;points=[];autosize=1;strokeColor=#d6b656;fillColor=#fff2cc;fontSize=13;" parent="Vm2ZW-4iMKkyB53sfb6V-50" vertex="1">
          <mxGeometry y="60" width="70" height="60" as="geometry" />
        </mxCell>
        <mxCell id="Vm2ZW-4iMKkyB53sfb6V-41" value="" style="shape=actor;whiteSpace=wrap;html=1;sketch=0;fontSize=13;strokeColor=default;" parent="Vm2ZW-4iMKkyB53sfb6V-50" vertex="1">
          <mxGeometry x="15" width="40" height="60" as="geometry" />
        </mxCell>
        <mxCell id="Vm2ZW-4iMKkyB53sfb6V-51" value="" style="endArrow=classic;html=1;rounded=1;fontSize=9;exitX=0.483;exitY=0.994;exitDx=0;exitDy=0;exitPerimeter=0;fillColor=#e1d5e7;strokeColor=#9673a6;comic=0;snapToPoint=1;endSize=6;targetPerimeterSpacing=0;sourcePerimeterSpacing=0;strokeWidth=2;startArrow=none;startFill=0;flowAnimation=1;entryX=0.863;entryY=0.076;entryDx=0;entryDy=0;entryPerimeter=0;" parent="1" source="Vm2ZW-4iMKkyB53sfb6V-46" target="Vm2ZW-4iMKkyB53sfb6V-71" edge="1">
          <mxGeometry width="50" height="50" relative="1" as="geometry">
            <mxPoint x="445.84000000000015" y="81.5" as="sourcePoint" />
            <mxPoint x="240" y="470" as="targetPoint" />
            <Array as="points">
              <mxPoint x="320" y="160" />
              <mxPoint x="240" y="220" />
              <mxPoint x="240" y="310" />
              <mxPoint x="240" y="390" />
            </Array>
          </mxGeometry>
        </mxCell>
        <mxCell id="Vm2ZW-4iMKkyB53sfb6V-52" value="" style="group" parent="1" vertex="1" connectable="0">
          <mxGeometry x="414" y="-20" width="50" height="90" as="geometry" />
        </mxCell>
        <mxCell id="Vm2ZW-4iMKkyB53sfb6V-53" value="" style="shape=actor;whiteSpace=wrap;html=1;sketch=0;fontSize=13;strokeColor=default;" parent="Vm2ZW-4iMKkyB53sfb6V-52" vertex="1">
          <mxGeometry x="5" width="40" height="60" as="geometry" />
        </mxCell>
        <mxCell id="Vm2ZW-4iMKkyB53sfb6V-54" value="&lt;font size=&quot;1&quot;&gt;ФССП&lt;br&gt;&lt;/font&gt;" style="text;html=1;align=center;verticalAlign=middle;resizable=0;points=[];autosize=1;strokeColor=#82b366;fillColor=#d5e8d4;fontSize=13;" parent="Vm2ZW-4iMKkyB53sfb6V-52" vertex="1">
          <mxGeometry y="60" width="50" height="30" as="geometry" />
        </mxCell>
        <mxCell id="Vm2ZW-4iMKkyB53sfb6V-55" value="" style="endArrow=classic;html=1;rounded=1;fontSize=9;exitX=0.617;exitY=0.967;exitDx=0;exitDy=0;exitPerimeter=0;fillColor=#d5e8d4;strokeColor=#82b366;comic=0;snapToPoint=1;endSize=6;targetPerimeterSpacing=0;sourcePerimeterSpacing=0;strokeWidth=2;startArrow=none;startFill=0;flowAnimation=1;" parent="1" source="Vm2ZW-4iMKkyB53sfb6V-54" edge="1">
          <mxGeometry width="50" height="50" relative="1" as="geometry">
            <mxPoint x="445.84000000000015" y="81.5" as="sourcePoint" />
            <mxPoint x="260" y="490" as="targetPoint" />
            <Array as="points">
              <mxPoint x="410" y="160" />
              <mxPoint x="340" y="230" />
              <mxPoint x="260" y="320" />
            </Array>
          </mxGeometry>
        </mxCell>
        <mxCell id="Vm2ZW-4iMKkyB53sfb6V-56" value="" style="group" parent="1" vertex="1" connectable="0">
          <mxGeometry x="340" y="-20" width="60" height="90" as="geometry" />
        </mxCell>
        <mxCell id="Vm2ZW-4iMKkyB53sfb6V-57" value="" style="shape=actor;whiteSpace=wrap;html=1;sketch=0;fontSize=13;strokeColor=default;" parent="Vm2ZW-4iMKkyB53sfb6V-56" vertex="1">
          <mxGeometry x="10" width="40" height="60" as="geometry" />
        </mxCell>
        <mxCell id="Vm2ZW-4iMKkyB53sfb6V-58" value="&lt;font size=&quot;1&quot;&gt;Нотариус&lt;br&gt;&lt;/font&gt;" style="text;html=1;align=center;verticalAlign=middle;resizable=0;points=[];autosize=1;strokeColor=#6c8ebf;fillColor=#dae8fc;fontSize=13;" parent="Vm2ZW-4iMKkyB53sfb6V-56" vertex="1">
          <mxGeometry x="-5" y="60" width="70" height="30" as="geometry" />
        </mxCell>
        <mxCell id="Vm2ZW-4iMKkyB53sfb6V-59" value="" style="endArrow=classic;html=1;rounded=1;fontSize=9;exitX=0.495;exitY=1.017;exitDx=0;exitDy=0;exitPerimeter=0;fillColor=#dae8fc;strokeColor=#6c8ebf;comic=0;snapToPoint=1;endSize=6;targetPerimeterSpacing=0;sourcePerimeterSpacing=0;strokeWidth=2;startArrow=none;startFill=0;flowAnimation=1;" parent="1" source="Vm2ZW-4iMKkyB53sfb6V-58" edge="1" target="U7iWCSA3t5KiNLshfyeG-4">
          <mxGeometry width="50" height="50" relative="1" as="geometry">
            <mxPoint x="371.68000000000006" y="81.5" as="sourcePoint" />
            <mxPoint x="400" y="460" as="targetPoint" />
            <Array as="points">
              <mxPoint x="420" y="180" />
              <mxPoint x="420" y="250" />
              <mxPoint x="280" y="330" />
              <mxPoint x="420" y="410" />
            </Array>
          </mxGeometry>
        </mxCell>
        <mxCell id="Vm2ZW-4iMKkyB53sfb6V-60" value="" style="group" parent="1" vertex="1" connectable="0">
          <mxGeometry x="230" y="-20" width="50" height="90" as="geometry" />
        </mxCell>
        <mxCell id="Vm2ZW-4iMKkyB53sfb6V-61" value="" style="shape=actor;whiteSpace=wrap;html=1;sketch=0;fontSize=13;strokeColor=default;" parent="Vm2ZW-4iMKkyB53sfb6V-60" vertex="1">
          <mxGeometry x="5" width="40" height="60" as="geometry" />
        </mxCell>
        <mxCell id="Vm2ZW-4iMKkyB53sfb6V-62" value="&lt;font size=&quot;1&quot;&gt;АУ&lt;br&gt;&lt;/font&gt;" style="text;html=1;align=center;verticalAlign=middle;resizable=0;points=[];autosize=1;strokeColor=#36393d;fillColor=#ffcc99;fontSize=13;" parent="Vm2ZW-4iMKkyB53sfb6V-60" vertex="1">
          <mxGeometry x="5" y="60" width="40" height="30" as="geometry" />
        </mxCell>
        <mxCell id="Vm2ZW-4iMKkyB53sfb6V-64" value="" style="endArrow=classic;html=1;rounded=1;fontSize=9;fillColor=#ffcc99;strokeColor=#FF9933;comic=0;snapToPoint=1;endSize=6;targetPerimeterSpacing=0;sourcePerimeterSpacing=0;strokeWidth=2;startArrow=none;startFill=0;flowAnimation=1;entryX=0.498;entryY=0.024;entryDx=0;entryDy=0;entryPerimeter=0;" parent="1" edge="1" target="Vm2ZW-4iMKkyB53sfb6V-67">
          <mxGeometry width="50" height="50" relative="1" as="geometry">
            <mxPoint x="260" y="70" as="sourcePoint" />
            <mxPoint x="340" y="470" as="targetPoint" />
            <Array as="points">
              <mxPoint x="390" y="140" />
              <mxPoint x="290" y="230" />
              <mxPoint x="280" y="320" />
              <mxPoint x="335" y="390" />
            </Array>
          </mxGeometry>
        </mxCell>
        <mxCell id="Vm2ZW-4iMKkyB53sfb6V-67" value="АУ XML&amp;amp;JSON" style="text;html=1;align=center;verticalAlign=middle;resizable=0;points=[];autosize=1;strokeColor=#36393d;fillColor=#ffcc99;fontSize=9;" parent="1" vertex="1">
          <mxGeometry x="290" y="470" width="90" height="20" as="geometry" />
        </mxCell>
        <mxCell id="Vm2ZW-4iMKkyB53sfb6V-68" value="Клиент &lt;br&gt;без &lt;br&gt;разрешения&lt;br&gt;XML&amp;amp;JSON" style="text;html=1;align=center;verticalAlign=middle;resizable=0;points=[];autosize=1;strokeColor=#d6b656;fillColor=#fff2cc;fontSize=9;" parent="1" vertex="1">
          <mxGeometry x="220" y="520" width="70" height="60" as="geometry" />
        </mxCell>
        <mxCell id="Vm2ZW-4iMKkyB53sfb6V-70" value="ФССП XML" style="text;html=1;align=center;verticalAlign=middle;resizable=0;points=[];autosize=1;strokeColor=#82b366;fillColor=#d5e8d4;fontSize=9;" parent="1" vertex="1">
          <mxGeometry x="200" y="490" width="70" height="20" as="geometry" />
        </mxCell>
        <mxCell id="Vm2ZW-4iMKkyB53sfb6V-71" value="ЦККИ XML" style="text;html=1;align=center;verticalAlign=middle;resizable=0;points=[];autosize=1;strokeColor=#9673a6;fillColor=#e1d5e7;fontSize=9;" parent="1" vertex="1">
          <mxGeometry x="180" y="460" width="70" height="20" as="geometry" />
        </mxCell>
        <mxCell id="U7iWCSA3t5KiNLshfyeG-4" value="Нотариус Json" style="text;html=1;align=center;verticalAlign=middle;resizable=0;points=[];autosize=1;strokeColor=#6c8ebf;fillColor=#dae8fc;fontSize=9;" vertex="1" parent="1">
          <mxGeometry x="384" y="480" width="80" height="20" as="geometry" />
        </mxCell>
        <mxCell id="U7iWCSA3t5KiNLshfyeG-11" value="Пользователь XML&amp;amp;JSON" style="text;html=1;align=center;verticalAlign=middle;resizable=0;points=[];autosize=1;strokeColor=#b85450;fillColor=#f8cecc;fontSize=9;" vertex="1" parent="1">
          <mxGeometry x="595" y="450" width="130" height="20" as="geometry" />
        </mxCell>
        <mxCell id="U7iWCSA3t5KiNLshfyeG-12" value="Субъект &lt;br&gt;(субъект, опекун, попечитель)&lt;br&gt;JSON" style="text;html=1;align=center;verticalAlign=middle;resizable=0;points=[];autosize=1;strokeColor=#b85450;fillColor=#f8cecc;fontSize=9;" vertex="1" parent="1">
          <mxGeometry x="560" y="475" width="150" height="50" as="geometry" />
        </mxCell>
        <mxCell id="U7iWCSA3t5KiNLshfyeG-13" value="СУД, СК&lt;br&gt;JSON" style="text;html=1;align=center;verticalAlign=middle;resizable=0;points=[];autosize=1;strokeColor=#b85450;fillColor=#f8cecc;fontSize=9;" vertex="1" parent="1">
          <mxGeometry x="530" y="530" width="60" height="40" as="geometry" />
        </mxCell>
        <mxCell id="U7iWCSA3t5KiNLshfyeG-14" value="ЦБ&lt;br&gt;XML&amp;amp;JSON" style="text;html=1;align=center;verticalAlign=middle;resizable=0;points=[];autosize=1;strokeColor=#b85450;fillColor=#f8cecc;fontSize=9;" vertex="1" parent="1">
          <mxGeometry x="450" y="510" width="70" height="40" as="geometry" />
        </mxCell>
        <mxCell id="U7iWCSA3t5KiNLshfyeG-17" value="" style="endArrow=classic;html=1;rounded=1;comic=0;fontSize=9;sourcePerimeterSpacing=0;targetPerimeterSpacing=0;strokeColor=#b85450;strokeWidth=2;exitX=0.674;exitY=1.007;exitDx=0;exitDy=0;exitPerimeter=0;entryX=0.429;entryY=0;entryDx=0;entryDy=0;entryPerimeter=0;fillColor=#f8cecc;flowAnimation=1;" edge="1" parent="1" source="Vm2ZW-4iMKkyB53sfb6V-24" target="U7iWCSA3t5KiNLshfyeG-14">
          <mxGeometry width="50" height="50" relative="1" as="geometry">
            <mxPoint x="460" y="490" as="sourcePoint" />
            <mxPoint x="510" y="440" as="targetPoint" />
          </mxGeometry>
        </mxCell>
        <mxCell id="U7iWCSA3t5KiNLshfyeG-18" value="" style="endArrow=classic;html=1;rounded=1;comic=0;fontSize=9;sourcePerimeterSpacing=0;targetPerimeterSpacing=0;strokeColor=#b85450;strokeWidth=2;entryX=0.167;entryY=0;entryDx=0;entryDy=0;entryPerimeter=0;fillColor=#f8cecc;flowAnimation=1;" edge="1" parent="1" target="U7iWCSA3t5KiNLshfyeG-13">
          <mxGeometry width="50" height="50" relative="1" as="geometry">
            <mxPoint x="540" y="430" as="sourcePoint" />
            <mxPoint x="490.03" y="520" as="targetPoint" />
          </mxGeometry>
        </mxCell>
        <mxCell id="U7iWCSA3t5KiNLshfyeG-19" value="" style="endArrow=classic;html=1;rounded=1;comic=0;fontSize=9;sourcePerimeterSpacing=0;targetPerimeterSpacing=0;strokeColor=#b85450;strokeWidth=2;fillColor=#f8cecc;flowAnimation=1;" edge="1" parent="1">
          <mxGeometry width="50" height="50" relative="1" as="geometry">
            <mxPoint x="540" y="430" as="sourcePoint" />
            <mxPoint x="560" y="480" as="targetPoint" />
          </mxGeometry>
        </mxCell>
        <mxCell id="U7iWCSA3t5KiNLshfyeG-20" value="" style="endArrow=classic;html=1;rounded=1;comic=0;fontSize=9;sourcePerimeterSpacing=0;targetPerimeterSpacing=0;strokeColor=#b85450;strokeWidth=2;entryX=-0.012;entryY=0.025;entryDx=0;entryDy=0;entryPerimeter=0;fillColor=#f8cecc;flowAnimation=1;" edge="1" parent="1" target="U7iWCSA3t5KiNLshfyeG-11">
          <mxGeometry width="50" height="50" relative="1" as="geometry">
            <mxPoint x="540" y="430" as="sourcePoint" />
            <mxPoint x="560.02" y="550" as="targetPoint" />
          </mxGeometry>
        </mxCell>
      </root>
    </mxGraphModel>
  </diagram>
</mxfile>
